<svg width="514" height="369" viewBox="0 0 514 369" fill="none" xmlns="http://www.w3.org/2000/svg">
<path d="M328.626 365.425C288.664 374.739 278.08 322.681 239.38 323.044C188.744 323.519 132.879 376.784 86.3028 367.697C39.03 358.475 15.0694 317.513 5.33522 277.384C-5.19291 233.981 -1.3776 182.483 30.2927 136.794C61.5906 91.6418 117.525 57.7805 172.888 35.6652C221.944 16.0691 269.239 26.631 319.013 21.4603C367.132 16.4615 422.348 -10.1359 460.609 5.77573C498.937 21.7147 512.881 62.7578 513.038 102.148C513.177 136.986 481.806 171.83 461.411 206.992C445.827 233.859 428.681 258.741 407.658 283.824C383.294 312.895 366.748 356.54 328.626 365.425Z" fill="#484C9A"/>
</svg>
